<?xml version="1.0" encoding="utf-8"?>
<!-- Generator: Adobe Illustrator 15.0.0, SVG Export Plug-In  -->
<!DOCTYPE svg PUBLIC "-//W3C//DTD SVG 1.1//EN" "http://www.w3.org/Graphics/SVG/1.1/DTD/svg11.dtd" [
	<!ENTITY ns_flows "http://ns.adobe.com/Flows/1.0/">
]>
<svg version="1.1"
	 xmlns="http://www.w3.org/2000/svg" xmlns:xlink="http://www.w3.org/1999/xlink" xmlns:a="http://ns.adobe.com/AdobeSVGViewerExtensions/3.0/"
	 x="0px" y="0px" width="174px" height="99px" viewBox="0 -0.539 174 99"
	 overflow="visible" enable-background="new 0 -0.539 174 99" xml:space="preserve">
<defs>
</defs>
<radialGradient id="SVGID_1_" cx="10.6909" cy="40.2427" r="61.5539" gradientTransform="matrix(0.751 0 0 0.751 53.0586 50.646)" gradientUnits="userSpaceOnUse">
	<stop  offset="0" style="stop-color:#000000"/>
	<stop  offset="1" style="stop-color:#058CF4"/>
</radialGradient>
<path fill="url(#SVGID_1_)" d="M94.348,65.683c-1.203-1.213-8.199-8.92-12.91-11.242c-4.711-2.321-9.641-4.864-13.361-7.622
	c-3.722-2.756-15.648-13.35-18.269-16.419c-2.678-3.137-6.426-13.576-7.732-16.325c-0.24-0.502-0.705-1.52-1.413-2.786
	C37.5,5.631,29.493-5.021,15.118,2.727c0,0-4.505,1.521-6.152,1.844S1.278,5.421,0.115,8.653c0,0,3.865,0.948,5.182,1.172
	s6.455-0.102,8.69,2.227c0.971,1.009,3.181,1.812,4.827,6.986c1.069,3.358,1.901,8.558,2,16.854
	c0.253,21.072,14.015,39.231,23.005,41.898c8.989,2.666,13.657,3.206,16.12,3.352c1.225,0.071,24.392-7.266,38.87-5.127
	c1.915,0.283,4.374,0.867,7.214,1.668L94.348,65.683z"/>
<radialGradient id="SVGID_2_" cx="23.8135" cy="50.8281" r="35.6641" gradientTransform="matrix(-0.751 0 0 0.751 125.3755 50.646)" gradientUnits="userSpaceOnUse">
	<stop  offset="0" style="stop-color:#000000"/>
	<stop  offset="1" style="stop-color:#058CF4"/>
</radialGradient>
<path fill="url(#SVGID_2_)" d="M105.986,77.682c0.317-0.077,0.928,0.019,1.315,0.13c18.896,5.433,52.659,19.295,57.979,19.295
	c6.256,0,7.655,0.884,8.082-0.928c0.332-1.404-3.416-2.771-8.685-3.76c-5.268-0.987-51.284-16.237-56.74-18.328
	c-4.008-1.535-9.856-5.797-12.536-7.449L105.986,77.682z"/>
<linearGradient id="SVGID_3_" gradientUnits="userSpaceOnUse" x1="-3.0488" y1="71.041" x2="-78.7751" y2="95.4051" gradientTransform="matrix(-1 0 0 1 96.2939 0)">
	<stop  offset="0" style="stop-color:#000000"/>
	<stop  offset="1" style="stop-color:#058CF4"/>
</linearGradient>
<path fill="url(#SVGID_3_)" d="M105.009,72.732c0,0,10.836,4.491,13.004,5.229c2.169,0.736,23.764,7.738,23.764,7.738
	s14.884,4.55,16.068,4.891s9.165,2.24,10.299,2.598c1.135,0.358,6.436,0.44,5.037,2.415c-1.399,1.976-7.984-0.493-10.783-1.234
	c-2.798-0.74-50.986-15.804-57.389-19.836c-6.402-4.034-10.002-8.084-10.002-8.084s7.376,4.828,9.699,6.112"/>
<radialGradient id="SVGID_4_" cx="61.0703" cy="-29.2236" r="79.8328" gradientTransform="matrix(-0.751 0 0 0.751 125.3755 50.646)" gradientUnits="userSpaceOnUse">
	<stop  offset="0" style="stop-color:#000000"/>
	<stop  offset="0.5951" style="stop-color:#058CF4"/>
	<stop  offset="0.9693" style="stop-color:#D9E6F4"/>
</radialGradient>
<path fill="url(#SVGID_4_)" d="M37.863,51.355c0,0,5.515,19.445,31.113,16.371c1.421-0.171,10.426-1.756,5.158,4.28
	c-5.269,6.036-1.496,5.718-3.612,6.59c-4.511,1.861-10.518,2.656-10.518,2.656S49.99,80.563,42.087,77.33
	c-6.39-2.614-14.486-13.771-15.809-18.713c0,0,6.528-0.423,7.108-12.612c0,0,4.477,5.351,4.53,5.479"/>
<linearGradient id="SVGID_5_" gradientUnits="userSpaceOnUse" x1="85.3291" y1="8.3208" x2="69.6287" y2="5.6293" gradientTransform="matrix(-1 0 0 1 96.2939 0)">
	<stop  offset="0" style="stop-color:#FFB000"/>
	<stop  offset="1" style="stop-color:#058CF4"/>
</linearGradient>
<path fill="url(#SVGID_5_)" d="M0,8.848c0,0,0.412-3.378,5.761-4.006c3.404-0.4,7.638-1.864,9.531-2.209
	c0.4-0.072-2.287,5.145-2.287,5.145s5.913,1.811,1.655,4.856c0,0-2.932-2.511-7.818-2.521C0.814,10.099,1.562,9.177,0,8.848z"/>
<radialGradient id="SVGID_6_" cx="133.4092" cy="-62.894" r="10.0873" gradientTransform="matrix(-0.751 0 0 0.751 125.3755 50.646)" gradientUnits="userSpaceOnUse">
	<stop  offset="0" style="stop-color:#000000"/>
	<stop  offset="1" style="stop-color:#058CF4"/>
</radialGradient>
<circle fill="url(#SVGID_6_)" cx="25.008" cy="8.81" r="2.819"/>
</svg>
