<?xml version="1.0" encoding="utf-8"?>
<!-- Generator: Adobe Illustrator 15.0.0, SVG Export Plug-In  -->
<!DOCTYPE svg PUBLIC "-//W3C//DTD SVG 1.1//EN" "http://www.w3.org/Graphics/SVG/1.1/DTD/svg11.dtd" [
	<!ENTITY ns_flows "http://ns.adobe.com/Flows/1.0/">
]>
<svg version="1.1"
	 xmlns="http://www.w3.org/2000/svg" xmlns:xlink="http://www.w3.org/1999/xlink" xmlns:a="http://ns.adobe.com/AdobeSVGViewerExtensions/3.0/"
	 x="0px" y="0px" width="498px" height="498px" viewBox="0.056 0 498 498"
	 overflow="visible" enable-background="new 0.056 0 498 498" xml:space="preserve">
<defs>
</defs>
<rect x="228.517" y="17.781" fill="#464646" width="1.586" height="462.225"/>
<rect x="267.695" y="17.781" fill="#464646" width="1.593" height="462.225"/>
<rect x="17.789" y="228.508" fill="#464646" width="462.224" height="1.589"/>
<rect x="17.789" y="267.691" fill="#464646" width="462.224" height="1.587"/>
<rect x="234.249" y="3.928" transform="matrix(-0.708 -0.7062 0.7062 -0.708 235.4806 567.4373)" fill="#464646" width="1.59" height="462.222"/>
<rect x="261.956" y="31.637" transform="matrix(-0.7077 -0.7065 0.7065 -0.7077 263.0765 634.3307)" fill="#464646" width="1.591" height="462.221"/>
<rect x="261.957" y="3.927" transform="matrix(0.7065 -0.7077 0.7077 0.7065 -89.2224 254.9401)" fill="#464646" width="1.588" height="462.223"/>
<rect x="234.251" y="31.633" transform="matrix(0.7079 -0.7063 0.7063 0.7079 -116.9249 242.7771)" fill="#464646" width="1.591" height="462.226"/>
<rect x="230.031" y="10.218" transform="matrix(-0.9234 -0.3837 0.3837 -0.9234 351.3723 552.7625)" fill="#464646" width="1.591" height="462.224"/>
<polygon fill="#464646" points="177.014,469.347 178.482,469.956 356.933,43.57 355.465,42.957 "/>
<polygon fill="#464646" points="43.578,140.86 42.958,142.327 469.355,320.779 469.965,319.314 "/>
<rect x="240.542" y="35.853" transform="matrix(0.386 -0.9225 0.9225 0.386 -98.0907 386.5616)" fill="#464646" width="1.589" height="462.226"/>
<rect x="266.179" y="10.218" transform="matrix(0.9233 -0.384 0.384 0.9233 -72.1977 121.0056)" fill="#464646" width="1.59" height="462.224"/>
<polygon fill="#464646" points="320.787,469.347 319.321,469.956 140.867,43.57 142.337,42.957 "/>
<rect x="240.541" y="-0.295" transform="matrix(-0.3868 -0.9222 0.9222 -0.3868 121.83 542.6521)" fill="#464646" width="1.591" height="462.229"/>
<rect x="255.672" y="35.854" transform="matrix(-0.3844 -0.9232 0.9232 -0.3844 108.5969 606.3481)" fill="#464646" width="1.588" height="462.224"/>
<path id="path2160_1_" fill="#464646" d="M248.898,0C111.506,0,0,111.506,0,248.899c0,137.393,111.506,248.903,248.898,248.903
	s248.897-111.511,248.897-248.903C497.795,111.506,386.29,0,248.898,0z M248.898,17.781c127.577,0,231.12,103.538,231.12,231.118
	c0,127.576-103.543,231.125-231.12,231.125S17.78,376.476,17.78,248.899C17.78,121.319,121.321,17.781,248.898,17.781z"/>
<path id="path5560_1_" fill="#FFFFFF" d="M248.893,8.598C116.25,8.598,8.594,116.254,8.594,248.896
	c0,132.647,107.657,240.309,240.299,240.309c132.644,0,240.299-107.661,240.299-240.309
	C489.192,116.254,381.537,8.598,248.893,8.598z M248.893,17.779c127.579,0,231.12,103.541,231.12,231.117
	c0,127.58-103.541,231.127-231.12,231.127S17.775,376.476,17.775,248.896C17.775,121.319,121.314,17.779,248.893,17.779z"/>
<path id="path2164_1_" fill="#464646" d="M248.898,17.781c-127.577,0-231.118,103.538-231.118,231.118
	c0,127.576,103.541,231.125,231.118,231.125s231.12-103.549,231.12-231.125C480.018,121.319,376.475,17.781,248.898,17.781z
	 M248.898,35.562c117.765,0,213.343,95.571,213.343,213.337c0,117.764-95.578,213.343-213.343,213.343
	S35.553,366.663,35.553,248.899C35.553,131.133,131.133,35.562,248.898,35.562z"/>
<path fill="#464646" d="M248.844,223.956c-13.745,0.033-24.866,11.202-24.831,24.947c0,0.035,0,0.073,0,0.109
	c0.025,13.746,11.197,24.867,24.942,24.833c13.748-0.029,24.866-11.198,24.834-24.942c0-0.036,0-0.075,0-0.109
	C273.759,235.045,262.592,223.925,248.844,223.956z M228.903,250.79c-0.83,0-1.5-0.671-1.5-1.499c0-0.829,0.67-1.5,1.5-1.5
	s1.503,0.672,1.503,1.5C230.406,250.119,229.733,250.79,228.903,250.79z M248.891,227.8c0.832,0,1.503,0.673,1.503,1.504
	c0,0.827-0.671,1.5-1.503,1.5c-0.825,0-1.498-0.673-1.498-1.5C247.393,228.473,248.066,227.8,248.891,227.8z M235.821,264.487
	c-0.588,0.586-1.535,0.586-2.125,0c-0.585-0.585-0.585-1.536,0-2.124c0.59-0.588,1.537-0.588,2.125,0
	C236.406,262.951,236.406,263.902,235.821,264.487z M235.821,236.218c-0.588,0.585-1.535,0.585-2.125,0
	c-0.585-0.585-0.585-1.538,0-2.121c0.59-0.587,1.537-0.587,2.125,0C236.406,234.681,236.408,235.631,235.821,236.218z
	 M248.891,270.78c-0.825,0-1.498-0.669-1.498-1.502c0-0.826,0.673-1.499,1.498-1.499c0.832,0,1.503,0.673,1.503,1.499
	C250.394,270.111,249.723,270.78,248.891,270.78z M260.939,249.291c0.012,6.644-5.363,12.045-12.012,12.059
	c-6.645,0.013-12.043-5.366-12.055-12.006c0-0.019,0-0.034,0-0.052c-0.014-6.646,5.362-12.041,12.007-12.059
	c6.645-0.013,12.043,5.363,12.06,12.011C260.939,249.259,260.939,249.274,260.939,249.291z M264.09,264.487
	c-0.587,0.586-1.535,0.586-2.125,0c-0.585-0.585-0.585-1.536,0-2.124c0.59-0.588,1.538-0.588,2.125-0.001
	C264.673,262.951,264.673,263.902,264.09,264.487z M264.09,236.218c-0.587,0.585-1.535,0.585-2.125-0.001
	c-0.585-0.584-0.585-1.536,0-2.12c0.59-0.587,1.538-0.587,2.125,0C264.673,234.681,264.673,235.633,264.09,236.218z M268.878,250.79
	c-0.825,0-1.5-0.671-1.5-1.499c0-0.829,0.675-1.5,1.5-1.5c0.833,0,1.506,0.672,1.506,1.5
	C270.384,250.119,269.711,250.79,268.878,250.79z"/>
<path fill="#464646" d="M252.908,242.338h-8.028l-4.016,6.952l4.016,6.953h8.028l4.016-6.953L252.908,242.338z M249.959,250.348
	c-0.585,0.586-1.538,0.586-2.126,0c-0.585-0.584-0.585-1.537,0-2.122c0.588-0.588,1.541-0.588,2.126,0
	C250.543,248.811,250.543,249.763,249.959,250.348z"/>
</svg>
